<?xml version="1.0" encoding="UTF-8" standalone="no"?>
<!DOCTYPE svg PUBLIC "-//W3C//DTD SVG 1.1//EN"
 "http://www.w3.org/Graphics/SVG/1.1/DTD/svg11.dtd">
<!-- Generated by graphviz version 2.43.0 (0)
 -->
<!-- Title: Graphical Class Hierarchy Pages: 1 -->
<svg width="528pt" height="142pt"
 viewBox="0.00 0.00 528.00 142.00" xmlns="http://www.w3.org/2000/svg" xmlns:xlink="http://www.w3.org/1999/xlink">
<g id="graph0" class="graph" transform="scale(1 1) rotate(0) translate(4 138)">
<title>Graphical Class Hierarchy</title>
<polygon fill="white" stroke="transparent" points="-4,4 -4,-138 524,-138 524,4 -4,4"/>
<!-- Node4 -->
<g id="node1" class="node">
<title>Node4</title>
<g id="a_node1"><a xlink:title=" ">
<polygon fill="white" stroke="#bfbfbf" points="0,-57.5 0,-76.5 93,-76.5 93,-57.5 0,-57.5"/>
<text text-anchor="middle" x="46.5" y="-64.5" font-family="Helvetica,sans-Serif" font-size="10.00">MonoBehaviour</text>
</a>
</g>
</g>
<!-- Node0 -->
<g id="node2" class="node">
<title>Node0</title>
<g id="a_node2"><a xlink:href="class_snake_game_1_1_scripts_1_1_board_display.html" target="_top" xlink:title=" ">
<polygon fill="white" stroke="black" points="132.5,-114.5 132.5,-133.5 311.5,-133.5 311.5,-114.5 132.5,-114.5"/>
<text text-anchor="middle" x="222" y="-121.5" font-family="Helvetica,sans-Serif" font-size="10.00">SnakeGame.Scripts.BoardDisplay</text>
</a>
</g>
</g>
<!-- Node4&#45;&gt;Node0 -->
<g id="edge1" class="edge">
<title>Node4&#45;&gt;Node0</title>
<path fill="none" stroke="midnightblue" d="M73.89,-81.22C89.54,-89.16 109.98,-98.7 129,-105 140.3,-108.74 152.64,-111.9 164.5,-114.49"/>
<polygon fill="midnightblue" stroke="midnightblue" points="75.31,-78.01 64.82,-76.52 72.09,-84.23 75.31,-78.01"/>
</g>
<!-- Node7 -->
<g id="node4" class="node">
<title>Node7</title>
<g id="a_node4"><a xlink:href="class_snake_game_1_1_scripts_1_1_color_changer.html" target="_top" xlink:title=" ">
<polygon fill="white" stroke="black" points="132,-76.5 132,-95.5 312,-95.5 312,-76.5 132,-76.5"/>
<text text-anchor="middle" x="222" y="-83.5" font-family="Helvetica,sans-Serif" font-size="10.00">SnakeGame.Scripts.ColorChanger</text>
</a>
</g>
</g>
<!-- Node4&#45;&gt;Node7 -->
<g id="edge3" class="edge">
<title>Node4&#45;&gt;Node7</title>
<path fill="none" stroke="midnightblue" d="M103.15,-73.09C113.04,-74.18 123.56,-75.33 134.08,-76.48"/>
<polygon fill="midnightblue" stroke="midnightblue" points="103.41,-69.6 93.09,-71.99 102.64,-76.56 103.41,-69.6"/>
</g>
<!-- Node8 -->
<g id="node5" class="node">
<title>Node8</title>
<g id="a_node5"><a xlink:href="class_snake_game_1_1_scripts_1_1_game_manager.html" target="_top" xlink:title=" ">
<polygon fill="white" stroke="black" points="129,-38.5 129,-57.5 315,-57.5 315,-38.5 129,-38.5"/>
<text text-anchor="middle" x="222" y="-45.5" font-family="Helvetica,sans-Serif" font-size="10.00">SnakeGame.Scripts.GameManager</text>
</a>
</g>
</g>
<!-- Node4&#45;&gt;Node8 -->
<g id="edge4" class="edge">
<title>Node4&#45;&gt;Node8</title>
<path fill="none" stroke="midnightblue" d="M103.15,-60.91C113.04,-59.82 123.56,-58.67 134.08,-57.52"/>
<polygon fill="midnightblue" stroke="midnightblue" points="102.64,-57.44 93.09,-62.01 103.41,-64.4 102.64,-57.44"/>
</g>
<!-- Node9 -->
<g id="node6" class="node">
<title>Node9</title>
<g id="a_node6"><a xlink:href="class_snake_game_1_1_scripts_1_1_tile_display.html" target="_top" xlink:title=" ">
<polygon fill="white" stroke="black" points="137.5,-0.5 137.5,-19.5 306.5,-19.5 306.5,-0.5 137.5,-0.5"/>
<text text-anchor="middle" x="222" y="-7.5" font-family="Helvetica,sans-Serif" font-size="10.00">SnakeGame.Scripts.TileDisplay</text>
</a>
</g>
</g>
<!-- Node4&#45;&gt;Node9 -->
<g id="edge5" class="edge">
<title>Node4&#45;&gt;Node9</title>
<path fill="none" stroke="midnightblue" d="M73.89,-52.78C89.54,-44.84 109.98,-35.3 129,-29 140.3,-25.26 152.64,-22.1 164.5,-19.51"/>
<polygon fill="midnightblue" stroke="midnightblue" points="72.09,-49.77 64.82,-57.48 75.31,-55.99 72.09,-49.77"/>
</g>
<!-- Node1 -->
<g id="node3" class="node">
<title>Node1</title>
<g id="a_node3"><a xlink:href="class_snake_game_1_1_scripts_1_1_board_array.html" target="_top" xlink:title=" ">
<polygon fill="white" stroke="black" points="351,-114.5 351,-133.5 520,-133.5 520,-114.5 351,-114.5"/>
<text text-anchor="middle" x="435.5" y="-121.5" font-family="Helvetica,sans-Serif" font-size="10.00">SnakeGame.Scripts.BoardArray</text>
</a>
</g>
</g>
<!-- Node0&#45;&gt;Node1 -->
<g id="edge2" class="edge">
<title>Node0&#45;&gt;Node1</title>
<path fill="none" stroke="midnightblue" d="M321.8,-124C331.46,-124 341.19,-124 350.68,-124"/>
<polygon fill="midnightblue" stroke="midnightblue" points="321.78,-120.5 311.78,-124 321.78,-127.5 321.78,-120.5"/>
</g>
</g>
</svg>
