<svg xmlns="http://www.w3.org/2000/svg" viewBox="0 0 480.048 480.048" width="120px" height="120px">
    <path fill="#befa91"
          d="M457.918,418.894c-8.73,8.729-20.79,14.13-34.12,14.13h-367.5c-26.65,0-48.25-21.6-48.25-48.25	c0-23.132,16.279-42.513,38.11-47.18c6.665-1.427,4.746-1.07,66.14-1.07c-24.64,0-44.96-18.46-47.88-42.31	c-3.635-28.353,18.576-54.19,47.88-54.19h145.75v-39.83c0-31.02-25.15-56.17-56.17-56.17c-38.01,0-62.434,2.656-94.95-13.31	c-8.663-4.254-13.74-12.903-13.74-22.07c0-10.211,4.474-14.111,17.59-31.24c14.67-19.15,37.42-30.38,61.54-30.38	c42.49,0,61.236-1.841,89.79,8.64c54.24,19.91,92.94,72.01,92.94,133.15v51.21h12.75c28.258,0,50.442,24.189,48.09,52.24h-0.01	c-2.02,24.779-22.77,44.26-48.08,44.26h56C466.915,336.524,488.034,388.776,457.918,418.894z"/>
    <path fill="#daffbf"
          d="M339.968,125.124c-46.52-43.395-93.797-38.1-137.65-38.1c-24.12,0-46.87,11.23-61.54,30.38	c-1.454,1.899-2.754,3.594-3.92,5.112c-13.86,18.054-43.67,9.992-43.67-13.872c0-10.211,4.474-14.111,17.59-31.24	c14.67-19.15,37.42-30.38,61.54-30.38h40.94C268.173,47.024,316.413,78.35,339.968,125.124z"/>
    <path fill="#ffbd7b"
          d="M355.048,188.814v14.43c-2.145,0-26.359,6.402-40-6.22c-12.55-11.61-3.65-27.38-14-52	c-11.47-27.28-30.34-26.83-39-49c-3.6-9.22-5.36-22.16,0.06-40.36C316.348,75.574,355.048,127.674,355.048,188.814z"/>
    <path fill="#ffd3a6"
          d="M298.209,98.065c-12.13-5.105-25.07-8.55-38.52-10.091c-1.67-8.32-1.58-18.88,2.42-32.31	c16.993,6.237,32.461,15.634,45.691,27.48C315.345,89.9,307.545,101.994,298.209,98.065z"/>
    <path fill="#99d856"
          d="M355.048,226.024v14h-97v-14c0-4.418,3.582-8,8-8h81	C351.466,218.024,355.048,221.606,355.048,226.024z"/>
    <path fill="#daffbf"
          d="M369.942,267.902c-34.06-0.156-99.555,0.122-229.644,0.122c-23.374,0-41.538,16.128-46.76,36.35	c-3.373,13.061-21.703,14.249-26.409,1.606c-10.62-28.527,7.271-65.956,45.17-65.956h255.5	C390.57,240.024,387.494,267.983,369.942,267.902z"/>
    <path fill="#ffbd7b"
          d="M112.298,240.024h42.47c-17.955,38.074-52.753,57.09-90.35,54.19	C60.783,265.861,82.995,240.024,112.298,240.024z"/>
    <path fill="#ffbd7b"
          d="M415.888,292.264c-0.78,0-12.483,4.191-28.84,2.76c-17.95-1.57-19.81-8.08-42-14	c-41.42-11.05-59.94,4.95-81-9c-6.82-4.52-15.49-13.23-20.86-32c4.956,0,119.636,0,124.61,0	C396.052,240.024,418.244,264.212,415.888,292.264z"/>
    <path fill="#ffd3a6"
          d="M154.768,240.024c-4,8.48-10.2,18.83-19.52,28.26c-14.92,1.55-27.82,9.9-35.55,21.9	c-13.4,4.31-25.81,4.76-35.28,4.03c-3.635-28.353,18.576-54.19,47.88-54.19H154.768z"/>
    <path fill="#ffd3a6"
          d="M369.99,267.891c-21.33-0.023-55.338,0.133-111.032,0.133c-5.65-5.21-11.67-13.68-15.77-28	c134.516,0,125.55-0.054,128.017,0.118C388.916,241.378,387.743,267.91,369.99,267.891z"/>
    <path fill="#daffbf"
          d="M425.896,366.442c-43.571-0.206-136.374,0.082-339.598,0.082c-21.902,0-39.394,14.215-45.729,32.828	c-4.952,14.551-25.84,14.371-30.347-0.324c-9.726-31.71,14.154-62.504,46.077-62.504h367.5	C447.854,336.524,444.831,366.532,425.896,366.442z"/>
    <path fill="#ffbd7b"
          d="M324.378,336.524c-6.067,27.473-22.058,47.037-50.33,54.5c-50.52,13.31-73.06-17.52-118-6	c-21.85,5.6-28.26,15.86-51,15c-38.696-1.459-58.89-27.868-58.89-62.43C52.825,336.167,32.932,336.524,324.378,336.524z"/>
    <path fill="#ffd3a6"
          d="M324.378,336.524c-1.47,6.68-4.86,18.71-13.08,30c-244.317,0-236.636-3.44-254.03,9.71	c-7.526-11.105-11.11-26.188-11.11-38.64C53.364,336.051,35.072,336.524,324.378,336.524z"/>
    <path fill="#99d856"
          d="M359.064,315.024c13.935,0,14.511,20.94,0.586,21.465c-1.304,0.049-217.541,0.063-219.204,0	c-13.925-0.525-13.349-21.465,0.586-21.465H359.064z"/>
    <path d="M480.048,384.774c0,31.017-25.233,56.25-56.25,56.25h-367.5c-38.877,0-66.203-38.776-52.884-75.456	c3.606-9.929,18.651-4.487,15.039,5.463c-9.534,26.25,10.036,53.993,37.845,53.993h367.5c22.194,0,40.25-18.056,40.25-40.25	s-18.056-40.25-40.25-40.25c-2.805,0-367.48-0.024-369.166,0.044c3.097,28.398,19.72,46.293,50.718,47.462	c11.986,0.46,18.287-2.488,27.006-6.559c64.475-30.1,84.539,12.337,139.654-2.184c11.485-3.025,17.63-6.971,21.253-9.675	c9.658-7.207,30.124,12.683-17.177,25.147c-52.814,13.914-76.018-16.765-118.052-5.986c-20.713,5.307-28.291,16.201-53.288,15.244	c-44.091-1.668-66.586-32.894-66.586-70.247c-0.252-10.639,14.003-9.247,34.899-9.247c-28.808-28.09-19.692-76.413,17.341-92.076	c9.754-4.121,15.964,10.621,6.232,14.736c-40.091,16.956-28.135,77.34,15.665,77.34h311.5	C454.815,328.524,480.048,353.757,480.048,384.774z M311.715,248.024h56.083c21.395,0,38.938,16.78,40.174,37.871	c-29.714,5.82-35.518-5.839-60.861-12.601c-35.451-9.46-55.375-0.281-70.488-4.236c-10.233-2.675-14.289,12.798-4.053,15.479	c19.581,5.126,37.095-4.672,70.416,4.217c21.142,5.642,23.735,12.524,43.366,14.24c12.313,1.078,30.674-1.246,34.661-4.601	c10.538-8.775-2.838-66.369-53.215-66.369h-56.083C301.145,232.024,301.131,248.024,311.715,248.024z M156.391,76.367l-6,6	c-5.056,5.058-1.405,13.657,5.657,13.657c4.157,0,5.548-2.234,11.657-8.343C175.178,80.206,163.879,68.884,156.391,76.367z M39.054,148.026c5.897,0,9.8-6.225,7.164-11.55c-3.402-6.876,0.975-13.452,7.952-13.452h34.351c16.403,33.519,93.33,29,113.36,29	c26.56,0,48.167,21.607,48.167,48.167v31.833c-101.962,0-97.351-0.766-100.49,1.934c-3.81,3.245-12.4,31.583-44.719,45.738	c-7.923,3.469-5.398,15.33,3.213,15.33c5.153,0,34.057-13.505,51.662-47.002h98.334c4.373,0,8.047-3.537,7.994-8.123	c0.009-0.792,0.006,5.832,0.006-39.71c0-35.382-28.785-64.167-64.167-64.167c-37.761,0-60.841,2.521-91.432-12.492	c-9.352-4.59-12.19-16.626-5.846-24.912c37-48.305,45.489-43.596,108.657-43.596c68.593,0,133.787,52.329,133.787,141.33	c-12.276,1.496-21.204-0.239-26.566-5.201c-9.008-8.336-1.574-24.286-12.059-49.229c-12.272-29.196-31.391-29.522-38.923-48.811	c-3.849-9.845-18.755-4.041-14.904,5.82c9.671,24.766,28.538,24.112,39.077,49.189c9.756,23.214,0.389,40.379,15.941,54.771	c11.992,11.1,29.827,11.295,45.959,8.319c4.172-0.272,7.475-3.733,7.475-7.974v-14.43c0-82.593-67.194-149.787-149.787-149.787	h-40.943c-26.437,0-51.816,12.53-67.892,33.518C91.595,89.293,85.849,94.606,85.23,107.024H54.17	c-6.976,0-11.354-6.576-7.952-13.452c1.96-3.959,0.338-8.758-3.622-10.718c-11.968-5.923-19.737,18.431-7.061,32.17	C24.96,126.486,28.284,148.026,39.054,148.026z"/>
</svg>
